<svg xmlns="http://www.w3.org/2000/svg" width="516.0pt" height="228.0pt" viewBox="0 0 516.0 228.0">
<style>text{font-family:Arial,Helvetica,sans-serif;fill:#25292d}.small{font-size:7.5px}.label{font-size:8px}.title{font-size:9px;font-weight:700}.subtitle{font-size:7.5px;fill:#667079}</style>
<rect width="516.0" height="228.0" fill="#ffffff"/>
<text x="258.00" y="12.00" class="title" text-anchor="middle" >Digitizer-disjoint<tspan dx="3">blind</tspan><tspan dx="3">agreement</tspan><tspan dx="3">and</tspan><tspan dx="3">cross-spill</tspan><tspan dx="3">null</tspan></text>
<text x="258.00" y="23.00" class="subtitle" text-anchor="middle" >Agreement<tspan dx="3">means</tspan><tspan dx="3">|Δq|</tspan><tspan dx="3">≤</tspan><tspan dx="3">0.0025;</tspan><tspan dx="3">band</tspan><tspan dx="3">is</tspan><tspan dx="3">the</tspan><tspan dx="3">2.5–97.5%</tspan><tspan dx="3">block-permutation</tspan><tspan dx="3">null</tspan></text>
<text x="10.00" y="105.00" class="label" text-anchor="middle" transform="rotate(-90 10 105)">Agreement<tspan dx="3">(%)</tspan></text>
<rect x="38" y="43" width="212" height="134" fill="#fbfcfd"/>
<line x1="38" y1="177.0" x2="250" y2="177.0" stroke="#dce1e5" stroke-width="0.6"/>
<text x="33.00" y="179.70" class="small" text-anchor="end" >0</text>
<line x1="38" y1="132.33333333333334" x2="250" y2="132.33333333333334" stroke="#dce1e5" stroke-width="0.6"/>
<text x="33.00" y="135.03" class="small" text-anchor="end" >13</text>
<line x1="38" y1="87.66666666666667" x2="250" y2="87.66666666666667" stroke="#dce1e5" stroke-width="0.6"/>
<text x="33.00" y="90.37" class="small" text-anchor="end" >27</text>
<line x1="38" y1="43.0" x2="250" y2="43.0" stroke="#dce1e5" stroke-width="0.6"/>
<text x="33.00" y="45.70" class="small" text-anchor="end" >40</text>
<line x1="38.0" y1="177" x2="38.0" y2="180" stroke="#25292d" stroke-width="0.7"/>
<text x="38.00" y="188.00" class="small" text-anchor="middle" >1</text>
<line x1="59.743589743589745" y1="177" x2="59.743589743589745" y2="180" stroke="#25292d" stroke-width="0.7"/>
<text x="59.74" y="188.00" class="small" text-anchor="middle" >5</text>
<line x1="86.92307692307692" y1="177" x2="86.92307692307692" y2="180" stroke="#25292d" stroke-width="0.7"/>
<text x="86.92" y="188.00" class="small" text-anchor="middle" >10</text>
<line x1="141.28205128205127" y1="177" x2="141.28205128205127" y2="180" stroke="#25292d" stroke-width="0.7"/>
<text x="141.28" y="188.00" class="small" text-anchor="middle" >20</text>
<line x1="195.64102564102564" y1="177" x2="195.64102564102564" y2="180" stroke="#25292d" stroke-width="0.7"/>
<text x="195.64" y="188.00" class="small" text-anchor="middle" >30</text>
<line x1="250.0" y1="177" x2="250.0" y2="180" stroke="#25292d" stroke-width="0.7"/>
<text x="250.00" y="188.00" class="small" text-anchor="middle" >40</text>
<polygon points="38.00,147.25 43.44,148.06 48.87,148.06 54.31,147.39 59.74,147.25 65.18,147.52 70.62,147.25 76.05,146.98 81.49,147.25 86.92,146.45 92.36,147.92 97.79,146.72 103.23,146.05 108.67,146.98 114.10,147.78 119.54,146.45 124.97,146.58 130.41,146.98 135.85,147.79 141.28,147.65 146.72,146.85 152.15,146.72 157.59,147.12 163.03,146.31 168.46,146.72 173.90,146.58 179.33,146.85 184.77,147.92 190.21,147.65 195.64,147.38 201.08,146.98 206.51,147.25 211.95,146.72 217.38,146.45 222.82,147.65 228.26,147.12 233.69,147.38 239.13,146.72 244.56,147.65 250.00,147.79 250.00,154.09 244.56,153.95 239.13,153.28 233.69,154.22 228.26,154.35 222.82,154.09 217.38,153.68 211.95,153.42 206.51,153.95 201.08,153.69 195.64,153.82 190.21,154.49 184.77,154.35 179.33,153.82 173.90,153.68 168.46,153.42 163.03,152.75 157.59,153.69 152.15,153.55 146.72,153.82 141.28,154.49 135.85,154.76 130.41,153.68 124.97,153.68 119.54,153.55 114.10,154.62 108.67,153.95 103.23,152.88 97.79,153.95 92.36,155.02 86.92,153.55 81.49,154.09 76.05,154.35 70.62,154.35 65.18,154.22 59.74,153.82 54.31,154.49 48.87,154.89 43.44,154.22 38.00,154.22" fill="#d9dee2" fill-opacity="0.9" stroke="none"/>
<polyline points="38.00,150.80 43.44,151.19 48.87,151.63 54.31,150.93 59.74,150.71 65.18,150.73 70.62,150.71 76.05,150.73 81.49,150.83 86.92,149.95 92.36,151.43 97.79,150.51 103.23,149.61 108.67,150.61 114.10,151.17 119.54,150.13 124.97,150.36 130.41,150.45 135.85,151.24 141.28,151.03 146.72,150.50 152.15,150.26 157.59,150.50 163.03,149.68 168.46,150.25 173.90,150.22 179.33,150.43 184.77,151.06 190.21,151.11 195.64,150.44 201.08,150.46 206.51,150.64 211.95,150.22 217.38,150.07 222.82,150.82 228.26,150.69 233.69,150.87 239.13,150.21 244.56,150.86 250.00,151.05" fill="none" stroke="#9aa4ad" stroke-width="1.0" stroke-dasharray="3,2"/>
<line x1="38.0" y1="156.632" x2="38.0" y2="150.2" stroke="#2377b4" stroke-width="0.7"/>
<circle cx="38.0" cy="153.55" r="1.8" fill="#2377b4"/>
<line x1="43.43589743589744" y1="154.22" x2="43.43589743589744" y2="147.654" stroke="#2377b4" stroke-width="0.7"/>
<circle cx="43.43589743589744" cy="150.2" r="1.8" fill="#2377b4"/>
<line x1="48.871794871794876" y1="154.756" x2="48.871794871794876" y2="148.458" stroke="#2377b4" stroke-width="0.7"/>
<circle cx="48.871794871794876" cy="150.602" r="1.8" fill="#2377b4"/>
<line x1="54.30769230769231" y1="153.818" x2="54.30769230769231" y2="147.922" stroke="#2377b4" stroke-width="0.7"/>
<circle cx="54.30769230769231" cy="150.468" r="1.8" fill="#2377b4"/>
<line x1="59.743589743589745" y1="150.468" x2="59.743589743589745" y2="144.036" stroke="#2377b4" stroke-width="0.7"/>
<circle cx="59.743589743589745" cy="146.582" r="1.8" fill="#2377b4"/>
<line x1="65.17948717948718" y1="151.942" x2="65.17948717948718" y2="144.036" stroke="#2377b4" stroke-width="0.7"/>
<circle cx="65.17948717948718" cy="146.716" r="1.8" fill="#2377b4"/>
<line x1="70.61538461538461" y1="151.808" x2="70.61538461538461" y2="144.036" stroke="#2377b4" stroke-width="0.7"/>
<circle cx="70.61538461538461" cy="146.85" r="1.8" fill="#2377b4"/>
<line x1="76.05128205128204" y1="151.004" x2="76.05128205128204" y2="143.5" stroke="#2377b4" stroke-width="0.7"/>
<circle cx="76.05128205128204" cy="146.314" r="1.8" fill="#2377b4"/>
<line x1="81.48717948717949" y1="151.674" x2="81.48717948717949" y2="144.70600000000002" stroke="#2377b4" stroke-width="0.7"/>
<circle cx="81.48717948717949" cy="147.118" r="1.8" fill="#2377b4"/>
<line x1="86.92307692307692" y1="153.014" x2="86.92307692307692" y2="144.572" stroke="#2377b4" stroke-width="0.7"/>
<circle cx="86.92307692307692" cy="147.788" r="1.8" fill="#2377b4"/>
<line x1="92.35897435897436" y1="152.88" x2="92.35897435897436" y2="145.24200000000002" stroke="#2377b4" stroke-width="0.7"/>
<circle cx="92.35897435897436" cy="148.994" r="1.8" fill="#2377b4"/>
<line x1="97.7948717948718" y1="150.87" x2="97.7948717948718" y2="144.036" stroke="#2377b4" stroke-width="0.7"/>
<circle cx="97.7948717948718" cy="147.386" r="1.8" fill="#2377b4"/>
<line x1="103.23076923076923" y1="149.93200000000002" x2="103.23076923076923" y2="141.356" stroke="#2377b4" stroke-width="0.7"/>
<circle cx="103.23076923076923" cy="144.84" r="1.8" fill="#2377b4"/>
<line x1="108.66666666666667" y1="155.024" x2="108.66666666666667" y2="146.582" stroke="#2377b4" stroke-width="0.7"/>
<circle cx="108.66666666666667" cy="150.066" r="1.8" fill="#2377b4"/>
<line x1="114.1025641025641" y1="153.55" x2="114.1025641025641" y2="145.24200000000002" stroke="#2377b4" stroke-width="0.7"/>
<circle cx="114.1025641025641" cy="148.59199999999998" r="1.8" fill="#2377b4"/>
<line x1="119.53846153846153" y1="153.55" x2="119.53846153846153" y2="145.644" stroke="#2377b4" stroke-width="0.7"/>
<circle cx="119.53846153846153" cy="148.994" r="1.8" fill="#2377b4"/>
<line x1="124.97435897435898" y1="153.014" x2="124.97435897435898" y2="145.778" stroke="#2377b4" stroke-width="0.7"/>
<circle cx="124.97435897435898" cy="148.324" r="1.8" fill="#2377b4"/>
<line x1="130.4102564102564" y1="153.148" x2="130.4102564102564" y2="145.912" stroke="#2377b4" stroke-width="0.7"/>
<circle cx="130.4102564102564" cy="149.39600000000002" r="1.8" fill="#2377b4"/>
<line x1="135.84615384615384" y1="152.076" x2="135.84615384615384" y2="145.778" stroke="#2377b4" stroke-width="0.7"/>
<circle cx="135.84615384615384" cy="147.922" r="1.8" fill="#2377b4"/>
<line x1="141.28205128205127" y1="151.942" x2="141.28205128205127" y2="143.232" stroke="#2377b4" stroke-width="0.7"/>
<circle cx="141.28205128205127" cy="146.582" r="1.8" fill="#2377b4"/>
<line x1="146.71794871794873" y1="153.818" x2="146.71794871794873" y2="146.716" stroke="#2377b4" stroke-width="0.7"/>
<circle cx="146.71794871794873" cy="148.994" r="1.8" fill="#2377b4"/>
<line x1="152.15384615384616" y1="155.962" x2="152.15384615384616" y2="149.798" stroke="#2377b4" stroke-width="0.7"/>
<circle cx="152.15384615384616" cy="151.808" r="1.8" fill="#2377b4"/>
<line x1="157.5897435897436" y1="155.962" x2="157.5897435897436" y2="148.056" stroke="#2377b4" stroke-width="0.7"/>
<circle cx="157.5897435897436" cy="151.406" r="1.8" fill="#2377b4"/>
<line x1="163.02564102564102" y1="153.416" x2="163.02564102564102" y2="146.984" stroke="#2377b4" stroke-width="0.7"/>
<circle cx="163.02564102564102" cy="148.994" r="1.8" fill="#2377b4"/>
<line x1="168.46153846153845" y1="154.22" x2="168.46153846153845" y2="146.18" stroke="#2377b4" stroke-width="0.7"/>
<circle cx="168.46153846153845" cy="148.86" r="1.8" fill="#2377b4"/>
<line x1="173.89743589743588" y1="154.488" x2="173.89743589743588" y2="146.046" stroke="#2377b4" stroke-width="0.7"/>
<circle cx="173.89743589743588" cy="148.994" r="1.8" fill="#2377b4"/>
<line x1="179.33333333333334" y1="153.416" x2="179.33333333333334" y2="145.108" stroke="#2377b4" stroke-width="0.7"/>
<circle cx="179.33333333333334" cy="148.324" r="1.8" fill="#2377b4"/>
<line x1="184.76923076923077" y1="152.88" x2="184.76923076923077" y2="145.644" stroke="#2377b4" stroke-width="0.7"/>
<circle cx="184.76923076923077" cy="148.19" r="1.8" fill="#2377b4"/>
<line x1="190.2051282051282" y1="152.88" x2="190.2051282051282" y2="143.232" stroke="#2377b4" stroke-width="0.7"/>
<circle cx="190.2051282051282" cy="147.52" r="1.8" fill="#2377b4"/>
<line x1="195.64102564102564" y1="151.004" x2="195.64102564102564" y2="142.294" stroke="#2377b4" stroke-width="0.7"/>
<circle cx="195.64102564102564" cy="145.778" r="1.8" fill="#2377b4"/>
<line x1="201.07692307692307" y1="151.406" x2="201.07692307692307" y2="141.49" stroke="#2377b4" stroke-width="0.7"/>
<circle cx="201.07692307692307" cy="145.51" r="1.8" fill="#2377b4"/>
<line x1="206.51282051282053" y1="148.056" x2="206.51282051282053" y2="139.48" stroke="#2377b4" stroke-width="0.7"/>
<circle cx="206.51282051282053" cy="142.83" r="1.8" fill="#2377b4"/>
<line x1="211.94871794871796" y1="152.746" x2="211.94871794871796" y2="142.83" stroke="#2377b4" stroke-width="0.7"/>
<circle cx="211.94871794871796" cy="146.716" r="1.8" fill="#2377b4"/>
<line x1="217.3846153846154" y1="150.334" x2="217.3846153846154" y2="139.882" stroke="#2377b4" stroke-width="0.7"/>
<circle cx="217.3846153846154" cy="144.17000000000002" r="1.8" fill="#2377b4"/>
<line x1="222.82051282051282" y1="150.066" x2="222.82051282051282" y2="140.55200000000002" stroke="#2377b4" stroke-width="0.7"/>
<circle cx="222.82051282051282" cy="144.036" r="1.8" fill="#2377b4"/>
<line x1="228.25641025641025" y1="148.59199999999998" x2="228.25641025641025" y2="140.418" stroke="#2377b4" stroke-width="0.7"/>
<circle cx="228.25641025641025" cy="142.696" r="1.8" fill="#2377b4"/>
<line x1="233.69230769230768" y1="150.066" x2="233.69230769230768" y2="142.16" stroke="#2377b4" stroke-width="0.7"/>
<circle cx="233.69230769230768" cy="145.24200000000002" r="1.8" fill="#2377b4"/>
<line x1="239.12820512820514" y1="150.334" x2="239.12820512820514" y2="139.882" stroke="#2377b4" stroke-width="0.7"/>
<circle cx="239.12820512820514" cy="144.304" r="1.8" fill="#2377b4"/>
<line x1="244.56410256410257" y1="147.922" x2="244.56410256410257" y2="138.94400000000002" stroke="#2377b4" stroke-width="0.7"/>
<circle cx="244.56410256410257" cy="142.83" r="1.8" fill="#2377b4"/>
<line x1="250.0" y1="150.2" x2="250.0" y2="142.16" stroke="#2377b4" stroke-width="0.7"/>
<circle cx="250.0" cy="145.51" r="1.8" fill="#2377b4"/>
<polyline points="38.00,153.55 43.44,150.20 48.87,150.60 54.31,150.47 59.74,146.58 65.18,146.72 70.62,146.85 76.05,146.31 81.49,147.12 86.92,147.79 92.36,148.99 97.79,147.39 103.23,144.84 108.67,150.07 114.10,148.59 119.54,148.99 124.97,148.32 130.41,149.40 135.85,147.92 141.28,146.58 146.72,148.99 152.15,151.81 157.59,151.41 163.03,148.99 168.46,148.86 173.90,148.99 179.33,148.32 184.77,148.19 190.21,147.52 195.64,145.78 201.08,145.51 206.51,142.83 211.95,146.72 217.38,144.17 222.82,144.04 228.26,142.70 233.69,145.24 239.13,144.30 244.56,142.83 250.00,145.51" fill="none" stroke="#2377b4" stroke-width="1.4"/>
<line x1="59.743589743589745" y1="43" x2="59.743589743589745" y2="177" stroke="#25292d" stroke-width="0.7" stroke-dasharray="2,2"/>
<text x="62.74" y="142.58" class="small" text-anchor="start" >Best-5:<tspan dx="3">9.1%</tspan></text>
<rect x="38" y="43" width="212" height="134" fill="none" stroke="#25292d" stroke-width="0.7"/>
<text x="144.00" y="36.00" class="title" text-anchor="middle" >H<tspan dx="3">plane</tspan></text>
<text x="144.00" y="198.00" class="label" text-anchor="middle" >Ensemble<tspan dx="3">size</tspan><tspan dx="3">N</tspan></text>
<rect x="290" y="43" width="212" height="134" fill="#fbfcfd"/>
<line x1="290" y1="177.0" x2="502" y2="177.0" stroke="#dce1e5" stroke-width="0.6"/>
<line x1="290" y1="132.33333333333334" x2="502" y2="132.33333333333334" stroke="#dce1e5" stroke-width="0.6"/>
<line x1="290" y1="87.66666666666667" x2="502" y2="87.66666666666667" stroke="#dce1e5" stroke-width="0.6"/>
<line x1="290" y1="43.0" x2="502" y2="43.0" stroke="#dce1e5" stroke-width="0.6"/>
<line x1="290.0" y1="177" x2="290.0" y2="180" stroke="#25292d" stroke-width="0.7"/>
<text x="290.00" y="188.00" class="small" text-anchor="middle" >1</text>
<line x1="338.9230769230769" y1="177" x2="338.9230769230769" y2="180" stroke="#25292d" stroke-width="0.7"/>
<text x="338.92" y="188.00" class="small" text-anchor="middle" >10</text>
<line x1="349.7948717948718" y1="177" x2="349.7948717948718" y2="180" stroke="#25292d" stroke-width="0.7"/>
<text x="349.79" y="188.00" class="small" text-anchor="middle" >12</text>
<line x1="393.28205128205127" y1="177" x2="393.28205128205127" y2="180" stroke="#25292d" stroke-width="0.7"/>
<text x="393.28" y="188.00" class="small" text-anchor="middle" >20</text>
<line x1="447.64102564102564" y1="177" x2="447.64102564102564" y2="180" stroke="#25292d" stroke-width="0.7"/>
<text x="447.64" y="188.00" class="small" text-anchor="middle" >30</text>
<line x1="502.0" y1="177" x2="502.0" y2="180" stroke="#25292d" stroke-width="0.7"/>
<text x="502.00" y="188.00" class="small" text-anchor="middle" >40</text>
<polygon points="290.00,135.05 295.44,131.17 300.87,127.82 306.31,125.95 311.74,123.13 317.18,123.79 322.62,121.66 328.05,121.12 333.49,118.98 338.92,117.23 344.36,117.91 349.79,115.63 355.23,116.30 360.67,116.16 366.10,114.42 371.54,113.89 376.97,113.62 382.41,112.41 387.85,111.47 393.28,112.14 398.72,109.73 404.15,111.07 409.59,110.13 415.03,110.54 420.46,109.86 425.90,109.06 431.33,108.39 436.77,110.27 442.21,108.79 447.64,110.00 453.08,109.46 458.51,110.80 463.95,110.26 469.38,110.67 474.82,110.67 480.26,111.21 485.69,111.74 491.13,113.48 496.56,115.63 502.00,116.56 502.00,132.51 496.56,131.85 491.13,131.04 485.69,130.23 480.26,129.16 474.82,128.22 469.38,128.36 463.95,128.49 458.51,128.22 453.08,127.29 447.64,128.09 442.21,126.89 436.77,127.42 431.33,127.29 425.90,127.16 420.46,127.15 415.03,127.29 409.59,126.75 404.15,128.76 398.72,127.42 393.28,128.76 387.85,129.30 382.41,131.04 376.97,131.85 371.54,131.17 366.10,130.64 360.67,135.06 355.23,132.91 349.79,133.58 344.36,134.39 338.92,135.06 333.49,136.13 328.05,137.34 322.62,136.94 317.18,138.68 311.74,139.35 306.31,139.88 300.87,141.89 295.44,143.37 290.00,145.78" fill="#d9dee2" fill-opacity="0.9" stroke="none"/>
<polyline points="290.00,140.31 295.44,138.07 300.87,135.55 306.31,133.41 311.74,132.02 317.18,131.99 322.62,130.31 328.05,130.27 333.49,128.66 338.92,126.80 344.36,127.11 349.79,125.53 355.23,125.54 360.67,126.40 366.10,122.83 371.54,123.40 376.97,123.75 382.41,122.43 387.85,121.09 393.28,120.72 398.72,119.53 404.15,120.60 409.59,119.25 415.03,119.39 420.46,119.29 425.90,118.93 431.33,118.82 436.77,119.23 442.21,118.52 447.64,119.57 453.08,119.08 458.51,120.39 463.95,119.91 469.38,120.28 474.82,120.17 480.26,120.85 485.69,121.96 491.13,123.47 496.56,124.37 502.00,125.00" fill="none" stroke="#9aa4ad" stroke-width="1.0" stroke-dasharray="3,2"/>
<line x1="290.0" y1="138.40800000000002" x2="290.0" y2="117.37" stroke="#20956f" stroke-width="0.7"/>
<circle cx="290.0" cy="126.75" r="1.8" fill="#20956f"/>
<line x1="295.43589743589746" y1="136.264" x2="295.43589743589746" y2="110.93800000000002" stroke="#20956f" stroke-width="0.7"/>
<circle cx="295.43589743589746" cy="122.864" r="1.8" fill="#20956f"/>
<line x1="300.87179487179486" y1="128.492" x2="300.87179487179486" y2="96.06400000000001" stroke="#20956f" stroke-width="0.7"/>
<circle cx="300.87179487179486" cy="111.876" r="1.8" fill="#20956f"/>
<line x1="306.3076923076923" y1="127.286" x2="306.3076923076923" y2="94.188" stroke="#20956f" stroke-width="0.7"/>
<circle cx="306.3076923076923" cy="110.402" r="1.8" fill="#20956f"/>
<line x1="311.7435897435897" y1="126.884" x2="311.7435897435897" y2="86.28200000000001" stroke="#20956f" stroke-width="0.7"/>
<circle cx="311.7435897435897" cy="106.248" r="1.8" fill="#20956f"/>
<line x1="317.1794871794872" y1="126.75" x2="317.1794871794872" y2="87.756" stroke="#20956f" stroke-width="0.7"/>
<circle cx="317.1794871794872" cy="106.248" r="1.8" fill="#20956f"/>
<line x1="322.61538461538464" y1="125.946" x2="322.61538461538464" y2="83.066" stroke="#20956f" stroke-width="0.7"/>
<circle cx="322.61538461538464" cy="103.70200000000001" r="1.8" fill="#20956f"/>
<line x1="328.05128205128204" y1="119.648" x2="328.05128205128204" y2="75.964" stroke="#20956f" stroke-width="0.7"/>
<circle cx="328.05128205128204" cy="98.342" r="1.8" fill="#20956f"/>
<line x1="333.4871794871795" y1="119.78200000000001" x2="333.4871794871795" y2="74.62400000000002" stroke="#20956f" stroke-width="0.7"/>
<circle cx="333.4871794871795" cy="96.86800000000001" r="1.8" fill="#20956f"/>
<line x1="338.9230769230769" y1="115.628" x2="338.9230769230769" y2="69.53200000000002" stroke="#20956f" stroke-width="0.7"/>
<circle cx="338.9230769230769" cy="92.446" r="1.8" fill="#20956f"/>
<line x1="344.35897435897436" y1="116.16399999999999" x2="344.35897435897436" y2="71.006" stroke="#20956f" stroke-width="0.7"/>
<circle cx="344.35897435897436" cy="92.31199999999998" r="1.8" fill="#20956f"/>
<line x1="349.7948717948718" y1="113.082" x2="349.7948717948718" y2="66.584" stroke="#20956f" stroke-width="0.7"/>
<circle cx="349.7948717948718" cy="88.96200000000002" r="1.8" fill="#20956f"/>
<line x1="355.2307692307692" y1="113.21600000000001" x2="355.2307692307692" y2="63.23400000000001" stroke="#20956f" stroke-width="0.7"/>
<circle cx="355.2307692307692" cy="87.22000000000001" r="1.8" fill="#20956f"/>
<line x1="360.6666666666667" y1="113.618" x2="360.6666666666667" y2="66.986" stroke="#20956f" stroke-width="0.7"/>
<circle cx="360.6666666666667" cy="89.63200000000002" r="1.8" fill="#20956f"/>
<line x1="366.1025641025641" y1="111.876" x2="366.1025641025641" y2="64.30600000000001" stroke="#20956f" stroke-width="0.7"/>
<circle cx="366.1025641025641" cy="88.426" r="1.8" fill="#20956f"/>
<line x1="371.53846153846155" y1="114.556" x2="371.53846153846155" y2="66.986" stroke="#20956f" stroke-width="0.7"/>
<circle cx="371.53846153846155" cy="89.364" r="1.8" fill="#20956f"/>
<line x1="376.974358974359" y1="113.75200000000001" x2="376.974358974359" y2="66.85200000000002" stroke="#20956f" stroke-width="0.7"/>
<circle cx="376.974358974359" cy="87.62200000000001" r="1.8" fill="#20956f"/>
<line x1="382.4102564102564" y1="109.59800000000001" x2="382.4102564102564" y2="62.028000000000006" stroke="#20956f" stroke-width="0.7"/>
<circle cx="382.4102564102564" cy="84.94200000000001" r="1.8" fill="#20956f"/>
<line x1="387.8461538461538" y1="110.402" x2="387.8461538461538" y2="62.162000000000006" stroke="#20956f" stroke-width="0.7"/>
<circle cx="387.8461538461538" cy="84.94200000000001" r="1.8" fill="#20956f"/>
<line x1="393.28205128205127" y1="110.134" x2="393.28205128205127" y2="62.56400000000001" stroke="#20956f" stroke-width="0.7"/>
<circle cx="393.28205128205127" cy="84.54" r="1.8" fill="#20956f"/>
<line x1="398.71794871794873" y1="112.68" x2="398.71794871794873" y2="64.708" stroke="#20956f" stroke-width="0.7"/>
<circle cx="398.71794871794873" cy="86.148" r="1.8" fill="#20956f"/>
<line x1="404.1538461538462" y1="108.66000000000001" x2="404.1538461538462" y2="61.358000000000004" stroke="#20956f" stroke-width="0.7"/>
<circle cx="404.1538461538462" cy="83.602" r="1.8" fill="#20956f"/>
<line x1="409.5897435897436" y1="109.866" x2="409.5897435897436" y2="58.544" stroke="#20956f" stroke-width="0.7"/>
<circle cx="409.5897435897436" cy="83.87" r="1.8" fill="#20956f"/>
<line x1="415.025641025641" y1="107.58800000000001" x2="415.025641025641" y2="61.492000000000004" stroke="#20956f" stroke-width="0.7"/>
<circle cx="415.025641025641" cy="83.066" r="1.8" fill="#20956f"/>
<line x1="420.46153846153845" y1="110.402" x2="420.46153846153845" y2="63.90400000000001" stroke="#20956f" stroke-width="0.7"/>
<circle cx="420.46153846153845" cy="85.07600000000001" r="1.8" fill="#20956f"/>
<line x1="425.8974358974359" y1="109.866" x2="425.8974358974359" y2="62.29600000000001" stroke="#20956f" stroke-width="0.7"/>
<circle cx="425.8974358974359" cy="84.406" r="1.8" fill="#20956f"/>
<line x1="431.33333333333337" y1="107.32000000000001" x2="431.33333333333337" y2="56.66799999999999" stroke="#20956f" stroke-width="0.7"/>
<circle cx="431.33333333333337" cy="82.932" r="1.8" fill="#20956f"/>
<line x1="436.7692307692308" y1="113.48400000000001" x2="436.7692307692308" y2="64.708" stroke="#20956f" stroke-width="0.7"/>
<circle cx="436.7692307692308" cy="86.148" r="1.8" fill="#20956f"/>
<line x1="442.2051282051282" y1="112.546" x2="442.2051282051282" y2="64.84200000000001" stroke="#20956f" stroke-width="0.7"/>
<circle cx="442.2051282051282" cy="87.488" r="1.8" fill="#20956f"/>
<line x1="447.64102564102564" y1="111.876" x2="447.64102564102564" y2="63.63600000000001" stroke="#20956f" stroke-width="0.7"/>
<circle cx="447.64102564102564" cy="85.88000000000001" r="1.8" fill="#20956f"/>
<line x1="453.0769230769231" y1="112.68" x2="453.0769230769231" y2="63.23400000000001" stroke="#20956f" stroke-width="0.7"/>
<circle cx="453.0769230769231" cy="86.684" r="1.8" fill="#20956f"/>
<line x1="458.51282051282055" y1="111.206" x2="458.51282051282055" y2="65.11" stroke="#20956f" stroke-width="0.7"/>
<circle cx="458.51282051282055" cy="85.74600000000001" r="1.8" fill="#20956f"/>
<line x1="463.94871794871796" y1="110.0" x2="463.94871794871796" y2="63.099999999999994" stroke="#20956f" stroke-width="0.7"/>
<circle cx="463.94871794871796" cy="84.94200000000001" r="1.8" fill="#20956f"/>
<line x1="469.38461538461536" y1="113.082" x2="469.38461538461536" y2="65.64600000000002" stroke="#20956f" stroke-width="0.7"/>
<circle cx="469.38461538461536" cy="87.086" r="1.8" fill="#20956f"/>
<line x1="474.8205128205128" y1="113.75200000000001" x2="474.8205128205128" y2="65.51200000000001" stroke="#20956f" stroke-width="0.7"/>
<circle cx="474.8205128205128" cy="87.22000000000001" r="1.8" fill="#20956f"/>
<line x1="480.2564102564103" y1="114.02000000000001" x2="480.2564102564103" y2="67.254" stroke="#20956f" stroke-width="0.7"/>
<circle cx="480.2564102564103" cy="89.89999999999999" r="1.8" fill="#20956f"/>
<line x1="485.6923076923077" y1="112.546" x2="485.6923076923077" y2="64.84200000000001" stroke="#20956f" stroke-width="0.7"/>
<circle cx="485.6923076923077" cy="87.086" r="1.8" fill="#20956f"/>
<line x1="491.12820512820514" y1="115.628" x2="491.12820512820514" y2="69.8" stroke="#20956f" stroke-width="0.7"/>
<circle cx="491.12820512820514" cy="92.04400000000001" r="1.8" fill="#20956f"/>
<line x1="496.56410256410254" y1="116.70000000000002" x2="496.56410256410254" y2="69.8" stroke="#20956f" stroke-width="0.7"/>
<circle cx="496.56410256410254" cy="92.04400000000001" r="1.8" fill="#20956f"/>
<line x1="502.0" y1="119.112" x2="502.0" y2="73.28400000000002" stroke="#20956f" stroke-width="0.7"/>
<circle cx="502.0" cy="94.724" r="1.8" fill="#20956f"/>
<polyline points="290.00,126.75 295.44,122.86 300.87,111.88 306.31,110.40 311.74,106.25 317.18,106.25 322.62,103.70 328.05,98.34 333.49,96.87 338.92,92.45 344.36,92.31 349.79,88.96 355.23,87.22 360.67,89.63 366.10,88.43 371.54,89.36 376.97,87.62 382.41,84.94 387.85,84.94 393.28,84.54 398.72,86.15 404.15,83.60 409.59,83.87 415.03,83.07 420.46,85.08 425.90,84.41 431.33,82.93 436.77,86.15 442.21,87.49 447.64,85.88 453.08,86.68 458.51,85.75 463.95,84.94 469.38,87.09 474.82,87.22 480.26,89.90 485.69,87.09 491.13,92.04 496.56,92.04 502.00,94.72" fill="none" stroke="#20956f" stroke-width="1.4"/>
<line x1="349.7948717948718" y1="43" x2="349.7948717948718" y2="177" stroke="#25292d" stroke-width="0.7" stroke-dasharray="2,2"/>
<text x="352.79" y="84.96" class="small" text-anchor="start" >Best-12:<tspan dx="3">26.3%</tspan></text>
<rect x="290" y="43" width="212" height="134" fill="none" stroke="#25292d" stroke-width="0.7"/>
<text x="396.00" y="36.00" class="title" text-anchor="middle" >V<tspan dx="3">plane</tspan></text>
<text x="396.00" y="198.00" class="label" text-anchor="middle" >Ensemble<tspan dx="3">size</tspan><tspan dx="3">N</tspan></text>
<line x1="324" y1="216" x2="342" y2="216" stroke="#25292d" stroke-width="1.5"/>
<text x="346.00" y="219.00" class="small" text-anchor="start" >observed<tspan dx="3">(95%</tspan><tspan dx="3">block</tspan><tspan dx="3">interval)</tspan></text>
<rect x="139" y="212" width="18" height="8" fill="#d9dee2"/>
<line x1="139" y1="216" x2="157" y2="216" stroke="#9aa4ad" stroke-width="1" stroke-dasharray="3,2"/>
<text x="161.00" y="219.00" class="small" text-anchor="start" >cross-spill<tspan dx="3">null</tspan></text>
</svg>
